<svg width="230" height="230" viewBox="0 0 230 230" fill="none" xmlns="http://www.w3.org/2000/svg">
<path d="M69.5361 224.37H17V77.7985L115.112 5.62984L213 77.3516V222.583C213 222.583 148.565 222.583 131.726 222.583C114.888 222.583 114.888 222.365 114.888 196" stroke="#507642" stroke-width="8" stroke-linecap="square"/>
<path d="M123.804 153.239C113.038 164.052 118.709 186.167 118.709 186.167C118.709 186.167 141.169 191.641 151.935 180.828C162.7 170.014 157.694 147.009 157.694 147.009C157.694 147.009 134.569 142.426 123.804 153.239Z" fill="#507642"/>
<path d="M123.804 108.296C113.038 119.109 118.709 141.225 118.709 141.225C118.709 141.225 141.169 146.698 151.935 135.885C162.7 125.072 157.694 102.067 157.694 102.067C157.694 102.067 134.569 97.483 123.804 108.296Z" fill="#507642"/>
<path d="M96.3716 83.9175C96.3716 99.2097 115.95 110.82 115.95 110.82C115.95 110.82 135.685 98.7377 135.685 83.4456C135.685 68.1534 115.95 55.442 115.95 55.442C115.95 55.442 96.3716 68.6254 96.3716 83.9175Z" fill="#507642"/>
<path d="M106.196 153.239C116.962 164.052 111.291 186.167 111.291 186.167C111.291 186.167 88.8306 191.641 78.0653 180.828C67.2999 170.014 72.3062 147.009 72.3062 147.009C72.3062 147.009 95.431 142.426 106.196 153.239Z" fill="#507642"/>
<path d="M106.196 108.296C116.962 119.109 111.291 141.225 111.291 141.225C111.291 141.225 88.8306 146.698 78.0653 135.885C67.2999 125.072 72.3062 102.067 72.3062 102.067C72.3062 102.067 95.431 97.483 106.196 108.296Z" fill="#507642"/>
</svg>
